<svg xmlns="http://www.w3.org/2000/svg" width="128" height="128" viewBox="0 0 128 128">
  <defs>
    <filter id="s" x="-20%" y="-20%" width="140%" height="140%">
      <feDropShadow dx="0" dy="1" stdDeviation="1" flood-opacity="0.18"/>
    </filter>
  </defs>
  <g filter="url(#s)">
    <ellipse cx="64" cy="76" rx="29" ry="30" fill="#ffffff" stroke="#202020" stroke-width="2"/>
    <path d="M41 61c8-12 38-14 47-4 6 7 5 18 2 32-2 12-10 25-26 25-18 0-28-14-28-30 0-10 1-17 5-23z" fill="#121212"/>
    <path d="M43 48c4-15 16-24 31-24 16 0 28 10 32 25-10 0-14 2-18 6-6 7-26 8-33 0-3-3-6-6-12-7z" fill="#f7f7f7" stroke="#202020" stroke-width="2"/>
    <path d="M44 38l-10-16 16 6z" fill="#111" stroke="#202020" stroke-width="2"/>
    <path d="M84 28l16-8-9 17z" fill="#111" stroke="#202020" stroke-width="2"/>
    <path d="M55 67c4 8 14 8 18 0" stroke="#f5f5f5" stroke-width="5" stroke-linecap="round"/>
    <path d="M43 96c2 9 8 14 16 14" stroke="#202020" stroke-width="6" fill="none" stroke-linecap="round"/>
    <path d="M87 88c10 5 13 15 8 24" stroke="#202020" stroke-width="7" fill="none" stroke-linecap="round"/>
    <circle cx="66" cy="49" r="4" fill="#111"/>
  </g>
</svg>
