<svg xmlns="http://www.w3.org/2000/svg" width="128" height="128" viewBox="0 0 128 128">
  <defs>
    <filter id="s" x="-20%" y="-20%" width="140%" height="140%">
      <feDropShadow dx="0" dy="1" stdDeviation="1" flood-opacity="0.18"/>
    </filter>
  </defs>
  <g filter="url(#s)">
    <ellipse cx="65" cy="72" rx="30" ry="26" fill="#ffffff" stroke="#202020" stroke-width="2"/>
    <path d="M38 73c0 16 11 31 27 31s28-11 28-26c0-9-6-13-13-14-4 9-16 16-28 16-6 0-11-2-14-7z" fill="#121212"/>
    <path d="M44 47c4-17 17-28 32-28 17 0 30 12 33 29-7 1-11 3-14 6-7 8-36 8-43 0-2-3-4-5-8-7z" fill="#f6f6f6" stroke="#202020" stroke-width="2"/>
    <path d="M44 38l-10-16 16 6z" fill="#111" stroke="#202020" stroke-width="2"/>
    <path d="M86 28l16-8-9 17z" fill="#111" stroke="#202020" stroke-width="2"/>
    <ellipse cx="54" cy="49" rx="4" ry="5" fill="#2f8a3a" stroke="#111" stroke-width="1"/>
    <ellipse cx="74" cy="49" rx="4" ry="5" fill="#2f8a3a" stroke="#111" stroke-width="1"/>
    <circle cx="64" cy="58" r="2.2" fill="#cc7b7b"/>
    <path d="M64 60c-3 0-6 2-7 5M64 60c3 0 6 2 7 5" stroke="#222" stroke-width="2" fill="none" stroke-linecap="round"/>
    <circle cx="55" cy="72" r="7" fill="#111"/>
    <path d="M47 95c2 8 8 14 16 14 5 0 9-2 12-6" stroke="#202020" stroke-width="6" fill="none" stroke-linecap="round"/>
  </g>
</svg>
