<svg xmlns="http://www.w3.org/2000/svg" width="384" height="48" viewBox="0 0 384 48">
  <defs>
    <g id="cat-body-base">
      <ellipse cx="24" cy="28" rx="12" ry="8" fill="#fff" stroke="#111" stroke-width="1.4"/>
      <ellipse cx="30" cy="27" rx="4.8" ry="4" fill="#111"/>
      <ellipse cx="20" cy="30" rx="2.4" ry="2.1" fill="#111"/>
      <circle cx="13.7" cy="20" r="5.6" fill="#fff" stroke="#111" stroke-width="1.4"/>
      <path d="M9 16l-2.5-4.8 4.8 1.8z" fill="#111"/>
      <path d="M15.8 16l4.5-2.8-2 5.2z" fill="#111"/>
      <ellipse cx="12.2" cy="20" rx="0.95" ry="1.25" fill="#2f8a3a"/>
      <ellipse cx="15.2" cy="20" rx="0.95" ry="1.25" fill="#2f8a3a"/>
      <circle cx="13.8" cy="22.5" r="0.7" fill="#d18a8a"/>
    </g>
  </defs>

  <g transform="translate(0,0)">
    <use href="#cat-body-base"/>
    <path d="M34 30 q6 -5 9 0" stroke="#111" stroke-width="2" fill="none" stroke-linecap="round"/>
    <rect x="17" y="33" width="2.7" height="8" rx="1.3" fill="#fff" stroke="#111" stroke-width="1" transform="rotate(10 18.3 33)"/>
    <rect x="21" y="33" width="2.7" height="8" rx="1.3" fill="#fff" stroke="#111" stroke-width="1" transform="rotate(-14 22.3 33)"/>
    <rect x="26" y="33" width="2.7" height="8" rx="1.3" fill="#111" stroke="#111" stroke-width="1" transform="rotate(14 27.3 33)"/>
    <rect x="30" y="33" width="2.7" height="8" rx="1.3" fill="#111" stroke="#111" stroke-width="1" transform="rotate(-10 31.3 33)"/>
  </g>

  <g transform="translate(48,0)">
    <use href="#cat-body-base" transform="translate(0,-0.7)"/>
    <path d="M34 30 q6 -7 9 -2" stroke="#111" stroke-width="2" fill="none" stroke-linecap="round"/>
    <rect x="17" y="33" width="2.7" height="8" rx="1.3" fill="#fff" stroke="#111" stroke-width="1" transform="rotate(-16 18.3 33)"/>
    <rect x="21" y="33" width="2.7" height="8" rx="1.3" fill="#fff" stroke="#111" stroke-width="1" transform="rotate(14 22.3 33)"/>
    <rect x="26" y="33" width="2.7" height="8" rx="1.3" fill="#111" stroke="#111" stroke-width="1" transform="rotate(-12 27.3 33)"/>
    <rect x="30" y="33" width="2.7" height="8" rx="1.3" fill="#111" stroke="#111" stroke-width="1" transform="rotate(14 31.3 33)"/>
  </g>

  <g transform="translate(96,0)">
    <use href="#cat-body-base"/>
    <path d="M34 30 q7 -4 10 1" stroke="#111" stroke-width="2" fill="none" stroke-linecap="round"/>
    <rect x="17" y="33" width="2.7" height="8" rx="1.3" fill="#fff" stroke="#111" stroke-width="1" transform="rotate(8 18.3 33)"/>
    <rect x="21" y="33" width="2.7" height="8" rx="1.3" fill="#fff" stroke="#111" stroke-width="1" transform="rotate(-10 22.3 33)"/>
    <rect x="26" y="33" width="2.7" height="8" rx="1.3" fill="#111" stroke="#111" stroke-width="1" transform="rotate(18 27.3 33)"/>
    <rect x="30" y="33" width="2.7" height="8" rx="1.3" fill="#111" stroke="#111" stroke-width="1" transform="rotate(-14 31.3 33)"/>
  </g>

  <g transform="translate(144,0)">
    <use href="#cat-body-base" transform="translate(0,-0.6)"/>
    <path d="M34 30 q5 -8 9 -3" stroke="#111" stroke-width="2" fill="none" stroke-linecap="round"/>
    <rect x="17" y="33" width="2.7" height="8" rx="1.3" fill="#fff" stroke="#111" stroke-width="1" transform="rotate(-15 18.3 33)"/>
    <rect x="21" y="33" width="2.7" height="8" rx="1.3" fill="#fff" stroke="#111" stroke-width="1" transform="rotate(12 22.3 33)"/>
    <rect x="26" y="33" width="2.7" height="8" rx="1.3" fill="#111" stroke="#111" stroke-width="1" transform="rotate(-14 27.3 33)"/>
    <rect x="30" y="33" width="2.7" height="8" rx="1.3" fill="#111" stroke="#111" stroke-width="1" transform="rotate(13 31.3 33)"/>
  </g>

  <g transform="translate(192,0)">
    <use href="#cat-body-base"/>
    <path d="M34 30 q6 -5 9 0" stroke="#111" stroke-width="2" fill="none" stroke-linecap="round"/>
    <rect x="17" y="33" width="2.7" height="8" rx="1.3" fill="#fff" stroke="#111" stroke-width="1" transform="rotate(10 18.3 33)"/>
    <rect x="21" y="33" width="2.7" height="8" rx="1.3" fill="#fff" stroke="#111" stroke-width="1" transform="rotate(-14 22.3 33)"/>
    <rect x="26" y="33" width="2.7" height="8" rx="1.3" fill="#111" stroke="#111" stroke-width="1" transform="rotate(14 27.3 33)"/>
    <rect x="30" y="33" width="2.7" height="8" rx="1.3" fill="#111" stroke="#111" stroke-width="1" transform="rotate(-10 31.3 33)"/>
  </g>

  <g transform="translate(240,0)">
    <use href="#cat-body-base" transform="translate(0,-0.7)"/>
    <path d="M34 30 q6 -7 9 -2" stroke="#111" stroke-width="2" fill="none" stroke-linecap="round"/>
    <rect x="17" y="33" width="2.7" height="8" rx="1.3" fill="#fff" stroke="#111" stroke-width="1" transform="rotate(-16 18.3 33)"/>
    <rect x="21" y="33" width="2.7" height="8" rx="1.3" fill="#fff" stroke="#111" stroke-width="1" transform="rotate(14 22.3 33)"/>
    <rect x="26" y="33" width="2.7" height="8" rx="1.3" fill="#111" stroke="#111" stroke-width="1" transform="rotate(-12 27.3 33)"/>
    <rect x="30" y="33" width="2.7" height="8" rx="1.3" fill="#111" stroke="#111" stroke-width="1" transform="rotate(14 31.3 33)"/>
  </g>

  <g transform="translate(288,0)">
    <use href="#cat-body-base"/>
    <path d="M34 30 q7 -4 10 1" stroke="#111" stroke-width="2" fill="none" stroke-linecap="round"/>
    <rect x="17" y="33" width="2.7" height="8" rx="1.3" fill="#fff" stroke="#111" stroke-width="1" transform="rotate(8 18.3 33)"/>
    <rect x="21" y="33" width="2.7" height="8" rx="1.3" fill="#fff" stroke="#111" stroke-width="1" transform="rotate(-10 22.3 33)"/>
    <rect x="26" y="33" width="2.7" height="8" rx="1.3" fill="#111" stroke="#111" stroke-width="1" transform="rotate(18 27.3 33)"/>
    <rect x="30" y="33" width="2.7" height="8" rx="1.3" fill="#111" stroke="#111" stroke-width="1" transform="rotate(-14 31.3 33)"/>
  </g>

  <g transform="translate(336,0)">
    <use href="#cat-body-base" transform="translate(0,-0.6)"/>
    <path d="M34 30 q5 -8 9 -3" stroke="#111" stroke-width="2" fill="none" stroke-linecap="round"/>
    <rect x="17" y="33" width="2.7" height="8" rx="1.3" fill="#fff" stroke="#111" stroke-width="1" transform="rotate(-15 18.3 33)"/>
    <rect x="21" y="33" width="2.7" height="8" rx="1.3" fill="#fff" stroke="#111" stroke-width="1" transform="rotate(12 22.3 33)"/>
    <rect x="26" y="33" width="2.7" height="8" rx="1.3" fill="#111" stroke="#111" stroke-width="1" transform="rotate(-14 27.3 33)"/>
    <rect x="30" y="33" width="2.7" height="8" rx="1.3" fill="#111" stroke="#111" stroke-width="1" transform="rotate(13 31.3 33)"/>
  </g>
</svg>
